<svg width="259" height="32" viewBox="0 0 259 32" xmlns="http://www.w3.org/2000/svg"><path d="M62 7.693v-.594h-7.263v.594c1.242.081 3.105.567 3.105 1.458 0 .324-.054 1.08-.621 2.43-.864 2.079-2.646 6.237-4.347 10.26-2.241-6.048-4.131-11.34-4.536-12.474a2.14 2.14 0 0 1-.135-.675c0-.648 1.674-.945 2.619-.999v-.594h-8.37v.594c.513.027 1.296.216 1.782.486.648.378.891.756 1.107 1.323.891 2.457 3.375 9.261 5.886 16.254h.999c2.106-5.076 5.508-12.987 6.615-15.552.378-.837.702-1.566 1.404-1.971.486-.27 1.242-.513 1.755-.54zm4.779.081c0-.864-.702-1.593-1.701-1.593-.891 0-1.647.783-1.647 1.701 0 .891.756 1.647 1.647 1.647.972 0 1.701-.81 1.701-1.755zm1.674 17.766V25a3.75 3.75 0 0 1-1.188-.324c-.486-.216-.729-.675-.729-1.242V13.363l-.189-.189-4.59.297v.513c.486.027 1.269.297 1.593.513.432.297.675.783.729 1.35v7.749c0 .54-.216 1.053-.729 1.215a4.976 4.976 0 0 1-1.188.189v.54zm10.449-3.483c0-2.214-1.458-3.213-3.672-3.942-2.241-.729-3.159-1.026-3.159-2.565 0-.999.459-1.944 2.106-1.944 1.917 0 3.294 1.539 3.564 3.078h.567l-.189-3.726h-.837l-.216.729c-.675-.459-1.755-.702-2.808-.702-2.511 0-4.05 1.539-4.05 3.537 0 2.322 1.944 3.321 3.672 3.834 2.106.621 3.159 1.188 3.159 2.592 0 1.323-.648 2.322-2.538 2.322-2.16 0-3.78-2.457-4.077-3.78h-.567l.135 4.185h.891l.27-.837c.459.459 1.89 1.08 3.213 1.08 2.538 0 4.536-1.458 4.536-3.861zm6.426-14.283c0-.864-.702-1.593-1.701-1.593-.891 0-1.647.783-1.647 1.701 0 .891.756 1.647 1.647 1.647.972 0 1.701-.81 1.701-1.755zm1.674 17.766V25a3.75 3.75 0 0 1-1.188-.324c-.486-.216-.729-.675-.729-1.242V13.363l-.189-.189-4.59.297v.513c.486.027 1.269.297 1.593.513.432.297.675.783.729 1.35v7.749c0 .54-.216 1.053-.729 1.215a4.976 4.976 0 0 1-1.188.189v.54zm9.855-3.348h-.594c-.162 1.026-.27 2.106-1.647 2.106-1.647 0-2.079-.999-2.079-2.538v-7.209h3.672V13.39H92.51V9.205h-2.349v4.185h-2.646v1.161h2.592v7.533c0 2.403 1.053 3.726 3.267 3.726 1.998 0 3.267-1.674 3.483-3.618zm27.729-14.499v-.594h-8.046v.594c.621.027 2.241.486 2.754.81.594.378.918 1.701.918 3.645v9.153L108.926 7.099h-5.562v.594c.729.027 2.241.675 2.889 1.188.54.432.864 1.35.864 2.133v9.504c0 2.106-.243 3.24-.891 3.699-.297.216-2.025.702-2.511.729v.594h8.1v-.594c-.486-.027-2.322-.486-2.781-.864-.594-.486-.918-1.647-.918-3.699v-9.882l12.096 15.228h.999V11.986c0-1.782.162-3.159.891-3.618.432-.27 1.998-.648 2.484-.675zm11.718 14.904l-.486-.324c-1.026 1.647-1.701 2.403-3.807 2.403-2.889 0-4.023-2.484-4.023-5.967v-.297h8.046v-.243c0-2.754-1.35-5.184-5.049-5.184-3.591 0-5.67 3.105-5.67 6.345 0 3.564 1.89 6.534 5.967 6.534 2.268 0 4.077-1.35 5.022-3.267zm-2.889-4.833l-5.427.054c.081-2.538 1.269-4.212 2.97-4.212 2.052 0 2.457 2.214 2.457 4.158zm16.065 7.776v-.567c-1.296-.216-1.593-.621-2.079-1.377a806.487 806.487 0 0 0-3.348-4.914c1.296-1.782 1.944-2.619 2.484-3.294.378-.459 1.269-1.134 2.619-1.539v-.513h-4.617v.54c.351.081 1.485.432 1.485.783 0 .162-.054.378-.135.486a101.289 101.289 0 0 1-2.16 3.078c-.837-1.269-1.89-2.835-2.214-3.348-.135-.243-.243-.432-.243-.594 0-.216.702-.378 1.242-.378v-.567h-5.562v.567c.594 0 1.296.162 1.998 1.215.972 1.404 2.214 3.267 3.186 4.698-1.296 1.782-2.349 2.97-2.808 3.564-.297.378-1.026 1.08-2.565 1.647v.513h4.644V25c-.297-.027-1.674-.297-1.674-.837 0-.189.108-.378.27-.621.81-1.242 1.593-2.133 2.457-3.267.972 1.485 1.863 2.727 2.241 3.321.135.243.378.675.378.81 0 .324-.756.513-1.458.567v.567zm9.315-3.348h-.594c-.162 1.026-.27 2.106-1.647 2.106-1.647 0-2.079-.999-2.079-2.538v-7.209h3.672V13.39h-3.699V9.205h-2.349v4.185h-2.646v1.161h2.592v7.533c0 2.403 1.053 3.726 3.267 3.726 1.998 0 3.267-1.674 3.483-3.618zm24.192-14.499v-.594h-7.02v.594c1.242.081 2.916.405 2.916 1.296 0 .432-1.917 3.645-4.428 7.587-2.403-4.266-4.185-7.56-4.185-7.938 0-.648 1.782-.891 2.727-.945v-.594h-8.694v.594c.513.027 1.242.189 1.728.459.648.378 1.188 1.026 1.647 1.836 1.161 1.971 2.322 4.131 3.564 6.561.405.81.702 1.485.702 2.025v4.698c0 .594-.189 1.107-.837 1.35-.351.135-1.728.297-2.214.324v.594h8.964v-.594c-.486-.027-1.89-.324-2.214-.459-.621-.27-.837-.729-.837-1.35v-3.591c0-.891.351-2.16.81-3.024 1.566-2.835 2.808-5.076 4.293-6.912.567-.702.81-.972 1.512-1.377.297-.189 1.242-.513 1.566-.54zm10.908 14.904l-.486-.324c-1.026 1.647-1.701 2.403-3.807 2.403-2.889 0-4.023-2.484-4.023-5.967v-.297h8.046v-.243c0-2.754-1.35-5.184-5.049-5.184-3.591 0-5.67 3.105-5.67 6.345 0 3.564 1.89 6.534 5.967 6.534 2.268 0 4.077-1.35 5.022-3.267zm-2.889-4.833l-5.427.054c.081-2.538 1.269-4.212 2.97-4.212 2.052 0 2.457 2.214 2.457 4.158zm16.794 4.563h-.594c-.081 1.026-.162 2.079-1.053 2.079-.891 0-1.269-.972-1.269-1.377 0-.891.135-3.672.135-6.048 0-3.591-1.971-3.996-4.644-3.996-2.052 0-4.347 1.242-4.347 2.862 0 .702.324 1.404 1.215 1.404.972 0 1.566-.594 1.566-1.161 0-.594-.243-1.188-.243-1.593.243-.297.621-.918 1.647-.918 2.241 0 2.322 2.241 2.322 2.727v1.512c-1.134.648-2.997 1.107-4.536 1.701-1.35.513-2.646 1.269-2.646 3.483 0 1.728 1.269 2.862 3.132 2.862 1.62 0 3.024-.729 3.996-1.863h.081c.432 1.242 1.107 1.809 2.376 1.809 1.674 0 2.7-.972 2.862-3.483zm-5.238-3.726l-.108 4.725c-.648.81-1.242 1.431-2.646 1.431-1.161 0-1.836-.675-1.836-2.16 0-2.403 1.89-3.159 4.59-3.996zm15.66-3.915c0-.891-.864-1.647-1.701-1.647-1.134 0-2.484.675-3.645 2.16h-.054v-1.836l-.189-.189-4.32.297v.513c.486.027.999.216 1.323.432.432.297.675.864.729 1.431v7.749c0 .594-.216 1.053-.729 1.215a4.976 4.976 0 0 1-1.188.189v.54h6.858V25c-.513-.027-1.296-.135-1.755-.324-.486-.189-.729-.621-.729-1.215v-7.452c.324-.594 1.323-1.755 2.7-1.755 0 .351-.189.567-.189.837 0 .918.594 1.296 1.458 1.296.918 0 1.431-.756 1.431-1.701z" fill="#fff"/></svg>