<svg width="259" height="32" viewBox="0 0 259 32" xmlns="http://www.w3.org/2000/svg"><path d="M70.114 25.54v-.594c-.487-.027-1.62-.189-2.026-.378-.485-.216-.782-.729-.782-1.296V12.877c0-1.215.189-2.916.377-4.05h-.35c-.784.459-2.242 1.134-3.78 1.134-1.08 0-2.025-.27-2.835-.621l-.244.459c.973.81 2.16 1.62 3.025 1.62.485 0 .917-.054 1.214-.135v12.123c0 .594-.35 1.107-.836 1.269-.379.135-1.648.243-2.134.27v.594zM84.234 8.8l-.35-.297c-1.189.918-2.106 1.431-4.023 1.431-2.107 0-3.133-.621-3.51-1.053h-.703l-2.051 9.018.702.135c.431-1.458 2.322-2.16 3.482-2.16 1.27 0 3.132.675 3.132 3.159 0 2.322-.782 6.264-3.806 6.264-1.459 0-2.376-.675-2.511-1.404 0-.918.377-.918.377-1.728 0-.702-.377-1.188-1.133-1.188-.594 0-1.702.324-1.702 1.728 0 1.755 1.89 3.213 4.995 3.213 3.294 0 6.562-2.214 6.562-5.508 0-3.375-2.646-5.238-5.427-5.238-1.216 0-2.755.432-3.591 1.107l.998-3.942c.163.027.946.054 1.594.054.998 0 5.346-.378 6.965-3.591zm23.356 2.673c0-2.781-2.593-4.374-5.779-4.374h-9.045v.594a9.54 9.54 0 0 1 2.052.378c.675.216.838.783.838 1.377v13.851c0 .594-.19 1.107-.838 1.35-.35.135-1.457.27-1.944.297v.594h8.614v-.594c-.675-.027-1.782-.162-2.133-.297-.648-.243-.838-.756-.838-1.35v-6.21h2.107c3.483 0 6.966-1.944 6.966-5.616zm-3.349.675c0 1.269-.513 4.131-4.4 4.131h-1.323V7.855h1.835c3.079 0 3.889 2.268 3.889 4.293zm11.124 13.392V25c-.486-.027-.782-.135-1.188-.324-.486-.216-.729-.648-.729-1.242V5.587l-.188-.189-4.888.297v.513c.487.027 1.567.324 1.89.54.433.297.675.918.73 1.539v15.309c0 .594-.217 1.053-.73 1.215a4.976 4.976 0 0 1-1.188.189v.54zm14.04-3.213h-.594c-.08 1.026-.162 2.079-1.053 2.079-.89 0-1.268-.972-1.268-1.377 0-.891.135-3.672.135-6.048 0-3.591-1.972-3.996-4.644-3.996-2.052 0-4.347 1.242-4.347 2.862 0 .702.323 1.404 1.215 1.404.971 0 1.566-.594 1.566-1.161 0-.594-.244-1.188-.244-1.593.243-.297.621-.918 1.647-.918 2.242 0 2.323 2.241 2.323 2.727v1.512c-1.135.648-2.998 1.107-4.537 1.701-1.35.513-2.645 1.269-2.645 3.483 0 1.728 1.269 2.862 3.132 2.862 1.62 0 3.024-.729 3.996-1.863h.08c.433 1.242 1.108 1.809 2.376 1.809 1.674 0 2.7-.972 2.862-3.483zm-5.237-3.726l-.109 4.725c-.647.81-1.242 1.431-2.645 1.431-1.162 0-1.837-.675-1.837-2.16 0-2.403 1.89-3.159 4.59-3.996zm16.74 4.05l-.513-.378c-.892 1.566-1.918 2.403-3.835 2.403-2.375 0-3.78-2.376-3.78-5.535 0-4.077 1.674-5.508 3.268-5.508.945 0 1.484.189 1.62.972 0 .513-.352.54-.352 1.674 0 1.053.972 1.35 1.512 1.35.946 0 1.404-.621 1.404-1.512 0-1.647-1.404-3.132-4.184-3.132-3.7 0-5.994 3.078-5.994 6.399 0 3.726 1.944 6.48 5.858 6.48 2.133 0 3.996-1.431 4.995-3.213zm11.88-.054l-.487-.324c-1.025 1.647-1.7 2.403-3.806 2.403-2.89 0-4.024-2.484-4.024-5.967v-.297h8.047v-.243c0-2.754-1.35-5.184-5.05-5.184-3.59 0-5.67 3.105-5.67 6.345 0 3.564 1.89 6.534 5.968 6.534 2.268 0 4.077-1.35 5.022-3.267zm-2.89-4.833l-5.427.054c.082-2.538 1.27-4.212 2.97-4.212 2.053 0 2.458 2.214 2.458 4.158zm13.257 4.293c0-2.214-1.458-3.213-3.672-3.942-2.24-.729-3.159-1.026-3.159-2.565 0-.999.46-1.944 2.106-1.944 1.917 0 3.294 1.539 3.564 3.078h.567l-.189-3.726h-.837l-.215.729c-.675-.459-1.755-.702-2.808-.702-2.512 0-4.05 1.539-4.05 3.537 0 2.322 1.944 3.321 3.672 3.834 2.106.621 3.159 1.188 3.159 2.592 0 1.323-.649 2.322-2.538 2.322-2.16 0-3.78-2.457-4.077-3.78h-.567l.135 4.185h.89l.27-.837c.46.459 1.89 1.08 3.213 1.08 2.538 0 4.536-1.458 4.536-3.861zm24.409-10.26V7.099H170.66v4.698h.649c.297-1.188 1.755-3.699 2.916-3.861.648-.081 1.593-.108 2.186-.108h1.27v15.444c0 .594-.19 1.107-.837 1.35-.351.135-1.728.297-2.214.324v.594h8.964v-.594c-.487-.027-1.89-.324-2.214-.459-.621-.27-.838-.756-.838-1.35V7.828h1.27c.729 0 1.538.027 2.187.108 1.16.162 2.619 2.673 2.916 3.861zm13.5 7.506c0-3.591-2.376-6.318-6.156-6.318s-6.291 2.673-6.291 6.507c0 3.969 2.862 6.426 6.102 6.426 4.077 0 6.345-3.024 6.345-6.615zm-2.727.027c0 3.24-1.053 5.967-3.456 5.967-2.538 0-3.537-2.808-3.537-6.021 0-2.565.728-5.67 3.537-5.67 2.619 0 3.456 2.889 3.456 5.724z" fill="#fff"/></svg>