<svg width="145" height="30" viewBox="0 0 145 30" xmlns="http://www.w3.org/2000/svg"><path d="M17.512 23.65v-.55c-.45-.025-1.5-.175-1.875-.35-.45-.2-.725-.675-.725-1.2v-9.625c0-1.125.175-2.7.35-3.75h-.325c-.724.425-2.074 1.05-3.5 1.05-1 0-1.874-.25-2.624-.575l-.226.425c.9.75 2 1.5 2.8 1.5.45 0 .85-.05 1.125-.125v11.225c0 .55-.325 1.025-.774 1.175-.35.125-1.525.225-1.976.25v.55zm13.075-15.5l-.325-.275c-1.1.85-1.95 1.325-3.724 1.325-1.95 0-2.9-.575-3.25-.975h-.65l-1.9 8.35.65.125c.4-1.35 2.15-2 3.224-2 1.176 0 2.9.625 2.9 2.925 0 2.15-.724 5.8-3.524 5.8-1.35 0-2.2-.625-2.325-1.3 0-.85.35-.85.35-1.6 0-.65-.35-1.1-1.05-1.1-.55 0-1.576.3-1.576 1.6 0 1.625 1.75 2.975 4.625 2.975 3.05 0 6.075-2.05 6.075-5.1 0-3.125-2.45-4.85-5.024-4.85-1.125 0-2.55.4-3.325 1.025l.925-3.65c.15.025.875.05 1.474.05.925 0 4.95-.35 6.45-3.325zm21.625 2.475c0-2.575-2.4-4.05-5.35-4.05h-8.375v.55c.45.025 1.276.15 1.9.35.626.2.776.725.776 1.275v12.825c0 .55-.175 1.025-.775 1.25-.325.125-1.35.25-1.8.275v.55h7.974v-.55c-.624-.025-1.65-.15-1.974-.275-.6-.225-.776-.7-.776-1.25v-5.75h1.95c3.225 0 6.45-1.8 6.45-5.2zm-3.1.625c0 1.175-.474 3.825-4.075 3.825h-1.224v-7.8h1.7c2.85 0 3.6 2.1 3.6 3.975zm10.3 12.4v-.5c-.45-.025-.724-.125-1.1-.3-.45-.2-.674-.6-.674-1.15V5.175L57.463 5l-4.526.275v.475c.45.025 1.45.3 1.75.5.4.275.626.85.675 1.425V21.85c0 .55-.2.975-.675 1.125-.35.1-.65.15-1.1.175v.5zm13-2.975h-.55c-.075.95-.15 1.925-.974 1.925-.826 0-1.175-.9-1.175-1.275 0-.825.125-3.4.125-5.6 0-3.325-1.825-3.7-4.3-3.7-1.9 0-4.025 1.15-4.025 2.65 0 .65.3 1.3 1.125 1.3.9 0 1.45-.55 1.45-1.075 0-.55-.225-1.1-.225-1.475.225-.275.575-.85 1.525-.85 2.075 0 2.15 2.075 2.15 2.525v1.4c-1.05.6-2.775 1.025-4.2 1.575-1.25.475-2.45 1.175-2.45 3.225 0 1.6 1.175 2.65 2.9 2.65 1.5 0 2.8-.675 3.7-1.725h.075c.4 1.15 1.025 1.675 2.2 1.675 1.55 0 2.5-.9 2.65-3.225zm-4.85-3.45l-.1 4.375c-.6.75-1.15 1.325-2.45 1.325-1.075 0-1.7-.625-1.7-2 0-2.225 1.75-2.925 4.25-3.7zm15.5 3.75l-.474-.35c-.825 1.45-1.775 2.225-3.55 2.225-2.2 0-3.5-2.2-3.5-5.125 0-3.775 1.55-5.1 3.025-5.1.874 0 1.374.175 1.5.9 0 .475-.326.5-.326 1.55 0 .975.9 1.25 1.4 1.25.876 0 1.3-.575 1.3-1.4 0-1.525-1.3-2.9-3.874-2.9-3.425 0-5.55 2.85-5.55 5.925 0 3.45 1.8 6 5.424 6 1.975 0 3.7-1.325 4.626-2.975zm11-.05l-.45-.3c-.95 1.525-1.575 2.225-3.524 2.225-2.675 0-3.725-2.3-3.725-5.525v-.275h7.45v-.225c0-2.55-1.25-4.8-4.675-4.8-3.326 0-5.25 2.875-5.25 5.875 0 3.3 1.75 6.05 5.524 6.05 2.1 0 3.775-1.25 4.65-3.025zm-2.674-4.475l-5.026.05c.076-2.35 1.175-3.9 2.75-3.9 1.9 0 2.276 2.05 2.276 3.85zm12.274 3.975c0-2.05-1.35-2.975-3.4-3.65-2.075-.675-2.924-.95-2.924-2.375 0-.925.425-1.8 1.95-1.8 1.775 0 3.05 1.425 3.3 2.85h.525l-.175-3.45h-.776l-.2.675c-.624-.425-1.624-.65-2.6-.65-2.325 0-3.75 1.425-3.75 3.275 0 2.15 1.8 3.075 3.4 3.55 1.95.575 2.925 1.1 2.925 2.4 0 1.225-.6 2.15-2.35 2.15-2 0-3.5-2.275-3.775-3.5h-.525l.125 3.875h.825l.25-.775c.425.425 1.75 1 2.976 1 2.35 0 4.2-1.35 4.2-3.575zm22.6-9.5v-4.35h-15.65v4.35h.6c.275-1.1 1.626-3.425 2.7-3.575.6-.075 1.475-.1 2.025-.1h1.175v14.3c0 .55-.174 1.025-.774 1.25-.325.125-1.6.275-2.05.3v.55h8.3v-.55c-.45-.025-1.75-.3-2.05-.425-.575-.25-.775-.7-.775-1.25V7.25h1.174c.675 0 1.425.025 2.026.1 1.075.15 2.425 2.475 2.7 3.575zm12.5 6.95c0-3.325-2.2-5.85-5.7-5.85s-5.825 2.475-5.825 6.025c0 3.675 2.65 5.95 5.65 5.95 3.775 0 5.875-2.8 5.875-6.125zm-2.524.025c0 3-.976 5.525-3.2 5.525-2.35 0-3.276-2.6-3.276-5.575 0-2.375.675-5.25 3.275-5.25 2.425 0 3.2 2.675 3.2 5.3z" fill="#fff"/></svg>