<svg width="194" height="30" viewBox="0 0 194 30" xmlns="http://www.w3.org/2000/svg"><path d="M34.5 7.125v-.55h-6.725v.55c1.15.075 2.875.525 2.875 1.35 0 .3-.05 1-.575 2.25-.8 1.925-2.45 5.775-4.025 9.5-2.075-5.6-3.825-10.5-4.2-11.55-.075-.2-.125-.45-.125-.625 0-.6 1.55-.875 2.425-.925v-.55H16.4v.55c.475.025 1.2.2 1.65.45.6.35.825.7 1.025 1.225.825 2.275 3.125 8.575 5.45 15.05h.925c1.95-4.7 5.1-12.025 6.125-14.4.35-.775.65-1.45 1.3-1.825.45-.25 1.15-.475 1.625-.5zm4.425.075c0-.8-.65-1.475-1.575-1.475-.825 0-1.525.725-1.525 1.575 0 .825.7 1.525 1.525 1.525.9 0 1.575-.75 1.575-1.625zm1.55 16.45v-.5a3.472 3.472 0 0 1-1.1-.3c-.45-.2-.675-.625-.675-1.15v-9.325l-.175-.175-4.25.275v.475c.45.025 1.175.275 1.475.475.4.275.625.725.675 1.25v7.175c0 .5-.2.975-.675 1.125-.35.1-.65.15-1.1.175v.5zm9.675-3.225c0-2.05-1.35-2.975-3.4-3.65-2.075-.675-2.925-.95-2.925-2.375 0-.925.425-1.8 1.95-1.8 1.775 0 3.05 1.425 3.3 2.85h.525L49.425 12h-.775l-.2.675c-.625-.425-1.625-.65-2.6-.65-2.325 0-3.75 1.425-3.75 3.275 0 2.15 1.8 3.075 3.4 3.55 1.95.575 2.925 1.1 2.925 2.4 0 1.225-.6 2.15-2.35 2.15-2 0-3.5-2.275-3.775-3.5h-.525l.125 3.875h.825l.25-.775c.425.425 1.75 1 2.975 1 2.35 0 4.2-1.35 4.2-3.575zM56.1 7.2c0-.8-.65-1.475-1.575-1.475C53.7 5.725 53 6.45 53 7.3c0 .825.7 1.525 1.525 1.525.9 0 1.575-.75 1.575-1.625zm1.55 16.45v-.5a3.472 3.472 0 0 1-1.1-.3c-.45-.2-.675-.625-.675-1.15v-9.325L55.7 12.2l-4.25.275v.475c.45.025 1.175.275 1.475.475.4.275.625.725.675 1.25v7.175c0 .5-.2.975-.675 1.125-.35.1-.65.15-1.1.175v.5zm9.125-3.1h-.55c-.15.95-.25 1.95-1.525 1.95-1.525 0-1.925-.925-1.925-2.35v-6.675h3.4V12.4H62.75V8.525h-2.175V12.4h-2.45v1.075h2.4v6.975c0 2.225.975 3.45 3.025 3.45 1.85 0 3.025-1.55 3.225-3.35zM92.45 7.125v-.55H85v.55c.575.025 2.075.45 2.55.75.55.35.85 1.575.85 3.375v8.475L77.95 6.575H72.8v.55c.675.025 2.075.625 2.675 1.1.5.4.8 1.25.8 1.975V19c0 1.95-.225 3-.825 3.425-.275.2-1.875.65-2.325.675v.55h7.5v-.55c-.45-.025-2.15-.45-2.575-.8-.55-.45-.85-1.525-.85-3.425v-9.15l11.2 14.1h.925V11.1c0-1.65.15-2.925.825-3.35.4-.25 1.85-.6 2.3-.625zm10.85 13.8l-.45-.3c-.95 1.525-1.575 2.225-3.525 2.225-2.675 0-3.725-2.3-3.725-5.525v-.275h7.45v-.225c0-2.55-1.25-4.8-4.675-4.8-3.325 0-5.25 2.875-5.25 5.875 0 3.3 1.75 6.05 5.525 6.05 2.1 0 3.775-1.25 4.65-3.025zm-2.675-4.475l-5.025.05c.075-2.35 1.175-3.9 2.75-3.9 1.9 0 2.275 2.05 2.275 3.85zm14.875 7.2v-.525c-1.2-.2-1.475-.575-1.925-1.275-.775-1.15-1.9-2.8-3.1-4.55 1.2-1.65 1.8-2.425 2.3-3.05.35-.425 1.175-1.05 2.425-1.425v-.475h-4.275v.5c.325.075 1.375.4 1.375.725 0 .15-.05.35-.125.45a93.786 93.786 0 0 1-2 2.85c-.775-1.175-1.75-2.625-2.05-3.1-.125-.225-.225-.4-.225-.55 0-.2.65-.35 1.15-.35v-.525h-5.15v.525c.55 0 1.2.15 1.85 1.125.9 1.3 2.05 3.025 2.95 4.35-1.2 1.65-2.175 2.75-2.6 3.3-.275.35-.95 1-2.375 1.525v.475h4.3v-.5c-.275-.025-1.55-.275-1.55-.775 0-.175.1-.35.25-.575.75-1.15 1.475-1.975 2.275-3.025.9 1.375 1.725 2.525 2.075 3.075.125.225.35.625.35.75 0 .3-.7.475-1.35.525v.525zm8.625-3.1h-.55c-.15.95-.25 1.95-1.525 1.95-1.525 0-1.925-.925-1.925-2.35v-6.675h3.4V12.4H120.1V8.525h-2.175V12.4h-2.45v1.075h2.4v6.975c0 2.225.975 3.45 3.025 3.45 1.85 0 3.025-1.55 3.225-3.35zm22.4-13.425v-.55h-6.5v.55c1.15.075 2.7.375 2.7 1.2 0 .4-1.775 3.375-4.1 7.025-2.225-3.95-3.875-7-3.875-7.35 0-.6 1.65-.825 2.525-.875v-.55h-8.05v.55c.475.025 1.15.175 1.6.425.6.35 1.1.95 1.525 1.7 1.075 1.825 2.15 3.825 3.3 6.075.375.75.65 1.375.65 1.875v4.35c0 .55-.175 1.025-.775 1.25-.325.125-1.6.275-2.05.3v.55h8.3v-.55c-.45-.025-1.75-.3-2.05-.425-.575-.25-.775-.675-.775-1.25V18.1c0-.825.325-2 .75-2.8 1.45-2.625 2.6-4.7 3.975-6.4.525-.65.75-.9 1.4-1.275.275-.175 1.15-.475 1.45-.5zm10.1 13.8l-.45-.3c-.95 1.525-1.575 2.225-3.525 2.225-2.675 0-3.725-2.3-3.725-5.525v-.275h7.45v-.225c0-2.55-1.25-4.8-4.675-4.8-3.325 0-5.25 2.875-5.25 5.875 0 3.3 1.75 6.05 5.525 6.05 2.1 0 3.775-1.25 4.65-3.025zm-2.675-4.475l-5.025.05c.075-2.35 1.175-3.9 2.75-3.9 1.9 0 2.275 2.05 2.275 3.85zm15.55 4.225h-.55c-.075.95-.15 1.925-.975 1.925s-1.175-.9-1.175-1.275c0-.825.125-3.4.125-5.6 0-3.325-1.825-3.7-4.3-3.7-1.9 0-4.025 1.15-4.025 2.65 0 .65.3 1.3 1.125 1.3.9 0 1.45-.55 1.45-1.075 0-.55-.225-1.1-.225-1.475.225-.275.575-.85 1.525-.85 2.075 0 2.15 2.075 2.15 2.525v1.4c-1.05.6-2.775 1.025-4.2 1.575-1.25.475-2.45 1.175-2.45 3.225 0 1.6 1.175 2.65 2.9 2.65 1.5 0 2.8-.675 3.7-1.725h.075c.4 1.15 1.025 1.675 2.2 1.675 1.55 0 2.5-.9 2.65-3.225zm-4.85-3.45l-.1 4.375c-.6.75-1.15 1.325-2.45 1.325-1.075 0-1.7-.625-1.7-2 0-2.225 1.75-2.925 4.25-3.7zm14.5-3.625c0-.825-.8-1.525-1.575-1.525-1.05 0-2.3.625-3.375 2h-.05v-1.7l-.175-.175-4 .275v.475c.45.025.925.2 1.225.4.4.275.625.8.675 1.325v7.175c0 .55-.2.975-.675 1.125-.35.1-.65.15-1.1.175v.5h6.35v-.5c-.475-.025-1.2-.125-1.625-.3-.45-.175-.675-.575-.675-1.125v-6.9c.3-.55 1.225-1.625 2.5-1.625 0 .325-.175.525-.175.775 0 .85.55 1.2 1.35 1.2.85 0 1.325-.7 1.325-1.575z" fill="#fff"/></svg>