<svg width="271" height="36" viewBox="0 0 271 36" xmlns="http://www.w3.org/2000/svg"><path d="M25.325 3.25l-.065.065v8.97l.065.065h1.17l.065-.065v-4.29l4.225 4.29.13.065h1.69l.065-.065-5.135-5.135 4.615-3.835-.065-.065h-1.69l-.13.065-3.705 3.12v-3.12l-.065-.065zM39.3 10.335l-.065-.065c-.65.65-1.56 1.04-2.405 1.04-1.105 0-1.885-.715-2.054-1.69h4.329l.13-.065c.065-.143.065-.26.065-.325 0-1.755-1.105-3.185-2.73-3.185-1.885 0-3.12 1.43-3.12 3.198 0 1.807 1.495 3.302 3.38 3.302.975 0 1.885-.455 2.47-.845zM34.828 8.58c.182-.715.832-1.3 1.742-1.3.715 0 1.365.585 1.43 1.3zm11.492 1.755l-.065-.065c-.65.65-1.56 1.04-2.405 1.04-1.105 0-1.885-.715-2.054-1.69h4.329l.13-.065c.065-.143.065-.26.065-.325 0-1.755-1.105-3.185-2.73-3.185-1.885 0-3.12 1.43-3.12 3.198 0 1.807 1.495 3.302 3.38 3.302.975 0 1.885-.455 2.47-.845zM41.848 8.58c.182-.715.832-1.3 1.742-1.3.715 0 1.365.585 1.43 1.3zm6.097-2.34l-.065.065v8.97l.065.065h1.17l.065-.065V12.09c.39.26.975.455 1.56.455 1.82 0 3.25-1.43 3.25-3.25s-1.43-3.25-3.25-3.25c-.585 0-1.17.195-1.56.455v-.195l-.065-.065zm1.235 1.69c.455-.39.975-.65 1.56-.65 1.105 0 1.885.845 1.885 2.015 0 1.17-.78 2.015-1.885 2.015a2.113 2.113 0 0 1-1.56-.65zm10.27-3.25l-.065.065V6.24h-1.04l-.065.065v1.17l.065.065h1.04v2.405c0 1.69.845 2.6 2.275 2.6.416 0 1.079-.182 1.43-.39V10.92l-.065-.065a2.318 2.318 0 0 1-1.365.455c-.52 0-.975-.39-.975-1.43V7.54h2.34l.065-.065v-1.17l-.065-.065h-2.34V4.758l-.065-.078zm5.005-1.43l-.065.065v8.97l.065.065h1.17l.065-.065V7.93c.325-.39.975-.65 1.625-.65 1.105 0 1.625.65 1.625 1.69v3.315l.065.065h1.17l.065-.065v-3.38c0-1.755-.975-2.86-2.925-2.86-.585 0-1.17.195-1.625.455V3.315l-.065-.065zm13.195 7.085l-.065-.065c-.65.65-1.56 1.04-2.405 1.04-1.105 0-1.885-.715-2.054-1.69h4.329l.13-.065c.065-.143.065-.26.065-.325 0-1.755-1.105-3.185-2.73-3.185-1.885 0-3.12 1.43-3.12 3.198 0 1.807 1.495 3.302 3.38 3.302.975 0 1.885-.455 2.47-.845zM73.178 8.58c.182-.715.832-1.3 1.742-1.3.715 0 1.365.585 1.43 1.3zm9.932-.715v-1.3c-.52-.325-1.235-.52-2.015-.52-1.365 0-2.275.78-2.275 1.82 0 2.405 3.575 1.495 3.575 2.73 0 .455-.26.715-1.17.715-.715 0-1.56-.26-2.275-.715l-.065.065v1.3c.585.39 1.56.585 2.34.585 1.56 0 2.535-.845 2.535-1.95 0-2.535-3.575-1.625-3.575-2.73 0-.325.325-.585.91-.585.65 0 1.3.195 1.95.65zm7.67 2.47l-.065-.065c-.65.65-1.56 1.04-2.405 1.04-1.105 0-1.885-.715-2.054-1.69h4.329l.13-.065c.065-.143.065-.26.065-.325 0-1.755-1.105-3.185-2.73-3.185-1.885 0-3.12 1.43-3.12 3.198 0 1.807 1.495 3.302 3.38 3.302.975 0 1.885-.455 2.47-.845zM86.308 8.58c.182-.715.832-1.3 1.742-1.3.715 0 1.365.585 1.43 1.3zm13.312-.715v-1.3c-.52-.325-1.235-.52-2.015-.52-1.365 0-2.275.78-2.275 1.82 0 2.405 3.575 1.495 3.575 2.73 0 .455-.26.715-1.17.715-.715 0-1.56-.26-2.275-.715l-.065.065v1.3c.585.39 1.56.585 2.34.585 1.56 0 2.535-.845 2.535-1.95 0-2.535-3.575-1.625-3.575-2.73 0-.325.325-.585.91-.585.65 0 1.3.195 1.95.65zm5.07-1.82c-1.82 0-3.25 1.43-3.25 3.25s1.43 3.25 3.25 3.25 3.25-1.43 3.25-3.25-1.43-3.25-3.25-3.25zm0 1.235c1.105 0 1.885.845 1.885 2.015 0 1.17-.78 2.015-1.885 2.015s-1.885-.845-1.885-2.015c0-1.17.78-2.015 1.885-2.015zm4.875-1.04l-.065.065v3.38c0 1.755.975 2.86 2.925 2.86.585 0 1.17-.195 1.625-.455v.195l.065.065h1.17l.065-.065v-5.98l-.065-.065h-1.17l-.065.065v4.355c-.325.39-.975.65-1.625.65-1.105 0-1.625-.65-1.625-1.69V6.305l-.065-.065zm13.065 0h-2.015a2.716 2.716 0 0 0-.975-.195c-1.365 0-2.47 1.079-2.47 2.405 0 .676.26 1.235.741 1.69-.351.26-.546.65-.546.975 0 .455.26.715.52.91-.78.52-1.365 1.105-1.365 1.82 0 1.43 1.43 1.95 3.25 1.95s2.99-.858 2.99-2.015c0-2.47-4.16-2.015-4.16-2.86 0-.13.065-.195.13-.26.26.13.585.195.91.195 1.495 0 2.47-1.04 2.47-2.405 0-.325-.078-.624-.195-.91h.715l.065-.065v-1.17zm-2.99.975c.676 0 1.17.559 1.17 1.235s-.494 1.235-1.17 1.235c-.676 0-1.17-.559-1.17-1.235s.494-1.235 1.17-1.235zm-.715 5.265c.65.195 2.47.455 2.47 1.3 0 .455-.52.845-1.625.845-1.3 0-1.885-.26-1.885-.78 0-.572.585-1.105 1.04-1.365zm5.07-9.23l-.065.065v8.97l.065.065h1.17l.065-.065V7.93c.325-.39.975-.65 1.625-.65 1.105 0 1.625.65 1.625 1.69v3.315l.065.065h1.17l.065-.065v-3.38c0-1.755-.975-2.86-2.925-2.86-.585 0-1.17.195-1.625.455V3.315l-.065-.065zm8.125 1.43l-.065.065V6.24h-1.04l-.065.065v1.17l.065.065h1.04v2.405c0 1.69.845 2.6 2.275 2.6.416 0 1.079-.182 1.43-.39V10.92l-.065-.065a2.318 2.318 0 0 1-1.365.455c-.52 0-.975-.39-.975-1.43V7.54h2.34l.065-.065v-1.17l-.065-.065h-2.34V4.758l-.065-.078zm4.485 3.965l-.065.065v1.17l.065.065h4.03l.065-.065V8.71l-.065-.065zm5.46-.715l.065.065c.78-.52 1.365-.715 2.08-.715.715 0 1.17.39 1.17 1.105-1.755.13-3.64.585-3.64 2.405 0 1.235 1.04 1.755 2.145 1.755.403 0 1.04-.13 1.495-.455v.195l.065.065h1.17l.065-.065v-3.64c0-1.755-.975-2.6-2.405-2.6-.715 0-1.235.195-1.625.39zm3.315 2.99c-.455.26-.91.39-1.365.39-.585 0-.91-.195-.91-.65 0-.65.91-1.105 2.275-1.17zm2.535-4.68l-.065.052v1.183l.065.065h.975v4.745l.065.065h1.17l.065-.065V7.54h2.275l.065-.065v-1.17l-.065-.065h-2.275v-.325c0-1.105.455-1.625 1.196-1.625.364 0 .689.065 1.079.39l.065-.065v-1.3a2.345 2.345 0 0 0-1.144-.26c-1.586 0-2.496 1.105-2.496 2.795v.39zm6.305-1.56l-.065.065V6.24h-1.04l-.065.065v1.17l.065.065h1.04v2.405c0 1.69.845 2.6 2.275 2.6.416 0 1.079-.182 1.43-.39V10.92l-.065-.065a2.318 2.318 0 0 1-1.365.455c-.52 0-.975-.39-.975-1.43V7.54h2.34l.065-.065v-1.17l-.065-.065h-2.34V4.758l-.065-.078zm10.4 5.655l-.065-.065c-.65.65-1.56 1.04-2.405 1.04-1.105 0-1.885-.715-2.054-1.69h4.329l.13-.065c.065-.143.065-.26.065-.325 0-1.755-1.105-3.185-2.73-3.185-1.885 0-3.12 1.43-3.12 3.198 0 1.807 1.495 3.302 3.38 3.302.975 0 1.885-.455 2.47-.845zm-4.472-1.755c.182-.715.832-1.3 1.742-1.3.715 0 1.365.585 1.43 1.3zm6.097-2.34l-.065.065v5.98l.065.065h1.17l.065-.065V7.93c.325-.39.975-.65 1.625-.65.325 0 .78.065 1.17.39l.065-.065-.065-1.3a2.55 2.55 0 0 0-1.17-.26c-.585 0-1.17.195-1.625.455v-.195l-.065-.065zm13.26-2.99l-.065.065V6.5a2.943 2.943 0 0 0-1.56-.455c-1.82 0-3.25 1.43-3.25 3.25s1.43 3.25 3.25 3.25c.585 0 1.17-.195 1.56-.455v.195l.065.065h1.17l.065-.065v-8.97l-.065-.065zm-.065 7.41c-.455.455-.975.65-1.56.65-1.105 0-1.885-.845-1.885-2.015 0-1.17.78-2.015 1.885-2.015.585 0 1.105.26 1.56.65zm8.84-.325l-.065-.065c-.65.65-1.56 1.04-2.405 1.04-1.105 0-1.885-.715-2.054-1.69h4.329l.13-.065c.065-.143.065-.26.065-.325 0-1.755-1.105-3.185-2.73-3.185-1.885 0-3.12 1.43-3.12 3.198 0 1.807 1.495 3.302 3.38 3.302.975 0 1.885-.455 2.47-.845zm-4.472-1.755c.182-.715.832-1.3 1.742-1.3.715 0 1.365.585 1.43 1.3zm9.932-.715v-1.3c-.52-.325-1.235-.52-2.015-.52-1.365 0-2.275.78-2.275 1.82 0 2.405 3.575 1.495 3.575 2.73 0 .455-.26.715-1.17.715-.715 0-1.56-.26-2.275-.715l-.065.065v1.3c.585.39 1.56.585 2.34.585 1.56 0 2.535-.845 2.535-1.95 0-2.535-3.575-1.625-3.575-2.73 0-.325.325-.585.91-.585.65 0 1.3.195 1.95.65zm2.6-3.185l-.065.065V6.24h-1.04l-.065.065v1.17l.065.065h1.04v2.405c0 1.69.845 2.6 2.275 2.6.416 0 1.079-.182 1.43-.39V10.92l-.065-.065a2.318 2.318 0 0 1-1.365.455c-.52 0-.975-.39-.975-1.43V7.54h2.34l.065-.065v-1.17l-.065-.065h-2.34V4.758l-.065-.078zm5.005 1.56l-.065.065v5.98l.065.065h1.17l.065-.065v-5.98l-.065-.065zm.52-2.275l-.78.78v.13l.78.78h.13l.78-.78v-.13l-.78-.78zm2.86 2.275l-.065.065v5.98l.065.065h1.17l.065-.065V7.93c.325-.39.975-.65 1.625-.65 1.105 0 1.625.65 1.625 1.69v3.315l.065.065h1.17l.065-.065v-3.38c0-1.755-.975-2.86-2.925-2.86-.585 0-1.17.195-1.625.455v-.195l-.065-.065zm7.54 1.69l.065.065c.78-.52 1.365-.715 2.08-.715.715 0 1.17.39 1.17 1.105-1.755.13-3.64.585-3.64 2.405 0 1.235 1.04 1.755 2.145 1.755.403 0 1.04-.13 1.495-.455v.195l.065.065h1.17l.065-.065v-3.64c0-1.755-.975-2.6-2.405-2.6-.715 0-1.235.195-1.625.39zm3.315 2.99c-.455.26-.91.39-1.365.39-.585 0-.91-.195-.91-.65 0-.65.91-1.105 2.275-1.17zm3.64-6.24l-.065.065V6.24h-1.04l-.065.065v1.17l.065.065h1.04v2.405c0 1.69.845 2.6 2.275 2.6.416 0 1.079-.182 1.43-.39V10.92l-.065-.065a2.318 2.318 0 0 1-1.365.455c-.52 0-.975-.39-.975-1.43V7.54h2.34l.065-.065v-1.17l-.065-.065h-2.34V4.758l-.065-.078zm5.005 1.56l-.065.065v5.98l.065.065h1.17l.065-.065v-5.98l-.065-.065zm.52-2.275l-.78.78v.13l.78.78h.13l.78-.78v-.13l-.78-.78zm5.655 2.08c-1.82 0-3.25 1.43-3.25 3.25s1.43 3.25 3.25 3.25 3.25-1.43 3.25-3.25-1.43-3.25-3.25-3.25zm0 1.235c1.105 0 1.885.845 1.885 2.015 0 1.17-.78 2.015-1.885 2.015s-1.885-.845-1.885-2.015c0-1.17.78-2.015 1.885-2.015zm5.005-1.04l-.065.065v5.98l.065.065h1.17l.065-.065V7.93c.325-.39.975-.65 1.625-.65 1.105 0 1.625.65 1.625 1.69v3.315l.065.065h1.17l.065-.065v-3.38c0-1.755-.975-2.86-2.925-2.86-.585 0-1.17.195-1.625.455v-.195l-.065-.065zm11.635 1.625v-1.3c-.52-.325-1.235-.52-2.015-.52-1.365 0-2.275.78-2.275 1.82 0 2.405 3.575 1.495 3.575 2.73 0 .455-.26.715-1.17.715-.715 0-1.56-.26-2.275-.715l-.065.065v1.3c.585.39 1.56.585 2.34.585 1.56 0 2.535-.845 2.535-1.95 0-2.535-3.575-1.625-3.575-2.73 0-.325.325-.585.91-.585.65 0 1.3.195 1.95.65zM51.325 26.13l.065.065c.78-.52 1.365-.715 2.08-.715.715 0 1.17.39 1.17 1.105-1.755.13-3.64.585-3.64 2.405 0 1.235 1.04 1.755 2.145 1.755.403 0 1.04-.13 1.495-.455v.195l.065.065h1.17l.065-.065v-3.64c0-1.755-.975-2.6-2.405-2.6-.715 0-1.235.195-1.625.39zm3.315 2.99c-.455.26-.91.39-1.365.39-.585 0-.91-.195-.91-.65 0-.65.91-1.105 2.275-1.17zm3.64-6.24l-.065.065v1.495h-1.04l-.065.065v1.17l.065.065h1.04v2.405c0 1.69.845 2.6 2.275 2.6.416 0 1.079-.182 1.43-.39V29.12l-.065-.065a2.318 2.318 0 0 1-1.365.455c-.52 0-.975-.39-.975-1.43v-2.34h2.34l.065-.065v-1.17l-.065-.065h-2.34v-1.482l-.065-.078zm8.71 0l-.065.065v1.495h-1.04l-.065.065v1.17l.065.065h1.04v2.405c0 1.69.845 2.6 2.275 2.6.416 0 1.079-.182 1.43-.39V29.12l-.065-.065a2.318 2.318 0 0 1-1.365.455c-.52 0-.975-.39-.975-1.43v-2.34h2.34l.065-.065v-1.17l-.065-.065h-2.34v-1.482l-.065-.078zm5.005-1.43l-.065.065v8.97l.065.065h1.17l.065-.065V26.13c.325-.39.975-.65 1.625-.65 1.105 0 1.625.65 1.625 1.69v3.315l.065.065h1.17l.065-.065v-3.38c0-1.755-.975-2.86-2.925-2.86-.585 0-1.17.195-1.625.455v-3.185l-.065-.065zm13.195 7.085l-.065-.065c-.65.65-1.56 1.04-2.405 1.04-1.105 0-1.885-.715-2.054-1.69h4.329l.13-.065c.065-.143.065-.26.065-.325 0-1.755-1.105-3.185-2.73-3.185-1.885 0-3.12 1.43-3.12 3.198 0 1.807 1.495 3.302 3.38 3.302.975 0 1.885-.455 2.47-.845zm-4.472-1.755c.182-.715.832-1.3 1.742-1.3.715 0 1.365.585 1.43 1.3zm9.802-3.9l-.065.065v1.495h-1.04l-.065.065v1.17l.065.065h1.04v2.405c0 1.69.845 2.6 2.275 2.6.416 0 1.079-.182 1.43-.39V29.12l-.065-.065a2.318 2.318 0 0 1-1.365.455c-.52 0-.975-.39-.975-1.43v-2.34h2.34l.065-.065v-1.17l-.065-.065h-2.34v-1.482l-.065-.078zm7.8 1.365c-1.82 0-3.25 1.43-3.25 3.25s1.43 3.25 3.25 3.25 3.25-1.43 3.25-3.25-1.43-3.25-3.25-3.25zm0 1.235c1.105 0 1.885.845 1.885 2.015 0 1.17-.78 2.015-1.885 2.015s-1.885-.845-1.885-2.015c0-1.17.78-2.015 1.885-2.015zm5.005-1.04l-.065.065v8.97l.065.065h1.17l.065-.065V30.29c.39.26.975.455 1.56.455 1.82 0 3.25-1.43 3.25-3.25s-1.43-3.25-3.25-3.25c-.585 0-1.17.195-1.56.455v-.195l-.065-.065zm1.235 1.69c.455-.39.975-.65 1.56-.65 1.105 0 1.885.845 1.885 2.015 0 1.17-.78 2.015-1.885 2.015a2.113 2.113 0 0 1-1.56-.65zm12.74-1.885c-1.82 0-3.25 1.43-3.25 3.25s1.43 3.25 3.25 3.25 3.25-1.43 3.25-3.25-1.43-3.25-3.25-3.25zm0 1.235c1.105 0 1.885.845 1.885 2.015 0 1.17-.78 2.015-1.885 2.015s-1.885-.845-1.885-2.015c0-1.17.78-2.015 1.885-2.015zm4.225-1.04l-.065.052v1.183l.065.065h.975v4.745l.065.065h1.17l.065-.065V25.74h2.275l.065-.065v-1.17l-.065-.065H123.8v-.325c0-1.105.455-1.625 1.196-1.625.364 0 .689.065 1.079.39l.065-.065v-1.3a2.345 2.345 0 0 0-1.144-.26c-1.586 0-2.496 1.105-2.496 2.795v.39zm8.45 0l-.065.065 2.73 5.33-.78 1.625c-.325.65-.845 1.04-1.625 1.04l-.065.065v1.014l.065.091c1.56 0 2.21-.715 2.73-1.625l3.835-7.54-.065-.065h-1.365l-.13.065-1.885 3.965-1.885-3.965-.13-.065zm10.855-.195c-1.82 0-3.25 1.43-3.25 3.25s1.43 3.25 3.25 3.25 3.25-1.43 3.25-3.25-1.43-3.25-3.25-3.25zm0 1.235c1.105 0 1.885.845 1.885 2.015 0 1.17-.78 2.015-1.885 2.015s-1.885-.845-1.885-2.015c0-1.17.78-2.015 1.885-2.015zm4.875-1.04l-.065.065v3.38c0 1.755.975 2.86 2.925 2.86.585 0 1.17-.195 1.625-.455v.195l.065.065h1.17l.065-.065v-5.98l-.065-.065h-1.17l-.065.065v4.355c-.325.39-.975.65-1.625.65-1.105 0-1.625-.65-1.625-1.69v-3.315l-.065-.065zm7.93 0l-.065.065v5.98l.065.065h1.17l.065-.065V26.13c.325-.39.975-.65 1.625-.65.325 0 .78.065 1.17.39l.065-.065-.065-1.3a2.55 2.55 0 0 0-1.17-.26c-.585 0-1.17.195-1.625.455v-.195l-.065-.065zm9.165-1.56l-.065.065v1.495h-1.04l-.065.065v1.17l.065.065h1.04v2.405c0 1.69.845 2.6 2.275 2.6.416 0 1.079-.182 1.43-.39V29.12l-.065-.065a2.318 2.318 0 0 1-1.365.455c-.52 0-.975-.39-.975-1.43v-2.34h2.34l.065-.065v-1.17l-.065-.065h-2.34v-1.482l-.065-.078zm5.005 1.56l-.065.065v5.98l.065.065h1.17l.065-.065V26.13c.325-.39.975-.65 1.625-.65.325 0 .78.065 1.17.39l.065-.065-.065-1.3a2.55 2.55 0 0 0-1.17-.26c-.585 0-1.17.195-1.625.455v-.195l-.065-.065zm5.2 1.69l.065.065c.78-.52 1.365-.715 2.08-.715.715 0 1.17.39 1.17 1.105-1.755.13-3.64.585-3.64 2.405 0 1.235 1.04 1.755 2.145 1.755.403 0 1.04-.13 1.495-.455v.195l.065.065h1.17l.065-.065v-3.64c0-1.755-.975-2.6-2.405-2.6-.715 0-1.235.195-1.625.39zm3.315 2.99c-.455.26-.91.39-1.365.39-.585 0-.91-.195-.91-.65 0-.65.91-1.105 2.275-1.17zm2.405-4.68l-.065.065 2.47 5.98.065.065h1.17l.065-.065 2.47-5.98-.065-.065h-1.3l-.065.065-1.69 4.29-1.69-4.29-.065-.065zm12.805 4.095l-.065-.065c-.65.65-1.56 1.04-2.405 1.04-1.105 0-1.885-.715-2.054-1.69h4.329l.13-.065c.065-.143.065-.26.065-.325 0-1.755-1.105-3.185-2.73-3.185-1.885 0-3.12 1.43-3.12 3.198 0 1.807 1.495 3.302 3.38 3.302.975 0 1.885-.455 2.47-.845zm-4.472-1.755c.182-.715.832-1.3 1.742-1.3.715 0 1.365.585 1.43 1.3zm5.967-5.33l-.065.065v6.89c0 1.495.78 2.34 2.145 2.34.455 0 .91-.195 1.235-.39v-1.3l-.065-.065c-.39.39-.78.52-1.17.52-.52 0-.845-.325-.845-1.17v-6.825l-.065-.065zm7.8 0l-.065.065v6.89c0 1.495.78 2.34 2.145 2.34.455 0 .91-.195 1.235-.39v-1.3l-.065-.065c-.39.39-.78.52-1.17.52-.52 0-.845-.325-.845-1.17v-6.825l-.065-.065zm4.55 2.99l-.065.065v5.98l.065.065h1.17l.065-.065v-5.98l-.065-.065zm.52-2.275l-.78.78v.13l.78.78h.13l.78-.78v-.13l-.78-.78zm6.695 3.9v-1.3c-.52-.325-1.235-.52-2.015-.52-1.365 0-2.275.78-2.275 1.82 0 2.405 3.575 1.495 3.575 2.73 0 .455-.26.715-1.17.715-.715 0-1.56-.26-2.275-.715l-.065.065v1.3c.585.39 1.56.585 2.34.585 1.56 0 2.535-.845 2.535-1.95 0-2.535-3.575-1.625-3.575-2.73 0-.325.325-.585.91-.585.65 0 1.3.195 1.95.65zm2.6-3.185l-.065.065v1.495h-1.04l-.065.065v1.17l.065.065h1.04v2.405c0 1.69.845 2.6 2.275 2.6.416 0 1.079-.182 1.43-.39V29.12l-.065-.065a2.318 2.318 0 0 1-1.365.455c-.52 0-.975-.39-.975-1.43v-2.34h2.34l.065-.065v-1.17l-.065-.065h-2.34v-1.482l-.065-.078zm5.005 2.21l-.065.065v1.17l.065.065h1.17l.065-.065v-1.17l-.065-.065zm0 4.16l-.065.065v1.17l.065.065h1.17l.065-.065v-1.17l-.065-.065z" fill="#fff"/></svg>