<svg width="502" height="16" viewBox="0 0 502 16" xmlns="http://www.w3.org/2000/svg"><path d="M1.02 3l-.06.06v8.28l.06.06H2.1l.06-.06V7.38l3.9 3.96.12.06h1.56l.06-.06L3.06 6.6l4.26-3.54L7.26 3H5.7l-.12.06-3.42 2.88V3.06L2.1 3zm12.9 6.54l-.06-.06c-.6.6-1.44.96-2.22.96-1.02 0-1.74-.66-1.896-1.56h3.996l.12-.06c.06-.132.06-.24.06-.3 0-1.62-1.02-2.94-2.52-2.94-1.74 0-2.88 1.32-2.88 2.952 0 1.668 1.38 3.048 3.12 3.048.9 0 1.74-.42 2.28-.78zM9.792 7.92c.168-.66.768-1.2 1.608-1.2.66 0 1.26.54 1.32 1.2zM20.4 9.54l-.06-.06c-.6.6-1.44.96-2.22.96-1.02 0-1.74-.66-1.896-1.56h3.996l.12-.06c.06-.132.06-.24.06-.3 0-1.62-1.02-2.94-2.52-2.94C16.14 5.58 15 6.9 15 8.532c0 1.668 1.38 3.048 3.12 3.048.9 0 1.74-.42 2.28-.78zm-4.128-1.62c.168-.66.768-1.2 1.608-1.2.66 0 1.26.54 1.32 1.2zM21.9 5.76l-.06.06v8.28l.06.06h1.08l.06-.06v-2.94c.36.24.9.42 1.44.42 1.68 0 3-1.32 3-3s-1.32-3-3-3c-.54 0-1.08.18-1.44.42v-.18l-.06-.06zm1.14 1.56c.42-.36.9-.6 1.44-.6 1.02 0 1.74.78 1.74 1.86s-.72 1.86-1.74 1.86c-.54 0-1.02-.18-1.44-.6zm9.48-3l-.06.06v1.38h-.96l-.06.06V6.9l.06.06h.96v2.22c0 1.56.78 2.4 2.1 2.4.384 0 .996-.168 1.32-.36v-1.14l-.06-.06a2.14 2.14 0 0 1-1.26.42c-.48 0-.9-.36-.9-1.32V6.96h2.16l.06-.06V5.82l-.06-.06h-2.16V4.392l-.06-.072zM37.14 3l-.06.06v8.28l.06.06h1.08l.06-.06V7.32c.3-.36.9-.6 1.5-.6 1.02 0 1.5.6 1.5 1.56v3.06l.06.06h1.08l.06-.06V8.22c0-1.62-.9-2.64-2.7-2.64-.54 0-1.08.18-1.5.42V3.06L38.22 3zm12.18 6.54l-.06-.06c-.6.6-1.44.96-2.22.96-1.02 0-1.74-.66-1.896-1.56h3.996l.12-.06c.06-.132.06-.24.06-.3 0-1.62-1.02-2.94-2.52-2.94-1.74 0-2.88 1.32-2.88 2.952 0 1.668 1.38 3.048 3.12 3.048.9 0 1.74-.42 2.28-.78zm-4.128-1.62c.168-.66.768-1.2 1.608-1.2.66 0 1.26.54 1.32 1.2zm9.168-.66v-1.2c-.48-.3-1.14-.48-1.86-.48-1.26 0-2.1.72-2.1 1.68 0 2.22 3.3 1.38 3.3 2.52 0 .42-.24.66-1.08.66-.66 0-1.44-.24-2.1-.66l-.06.06v1.2c.54.36 1.44.54 2.16.54 1.44 0 2.34-.78 2.34-1.8 0-2.34-3.3-1.5-3.3-2.52 0-.3.3-.54.84-.54.6 0 1.2.18 1.8.6zm7.08 2.28l-.06-.06c-.6.6-1.44.96-2.22.96-1.02 0-1.74-.66-1.896-1.56h3.996l.12-.06c.06-.132.06-.24.06-.3 0-1.62-1.02-2.94-2.52-2.94-1.74 0-2.88 1.32-2.88 2.952 0 1.668 1.38 3.048 3.12 3.048.9 0 1.74-.42 2.28-.78zm-4.128-1.62c.168-.66.768-1.2 1.608-1.2.66 0 1.26.54 1.32 1.2zM69.6 7.26v-1.2c-.48-.3-1.14-.48-1.86-.48-1.26 0-2.1.72-2.1 1.68 0 2.22 3.3 1.38 3.3 2.52 0 .42-.24.66-1.08.66-.66 0-1.44-.24-2.1-.66l-.06.06v1.2c.54.36 1.44.54 2.16.54 1.44 0 2.34-.78 2.34-1.8 0-2.34-3.3-1.5-3.3-2.52 0-.3.3-.54.84-.54.6 0 1.2.18 1.8.6zm4.68-1.68c-1.68 0-3 1.32-3 3s1.32 3 3 3 3-1.32 3-3-1.32-3-3-3zm0 1.14c1.02 0 1.74.78 1.74 1.86s-.72 1.86-1.74 1.86-1.74-.78-1.74-1.86.72-1.86 1.74-1.86zm4.5-.96l-.06.06v3.12c0 1.62.9 2.64 2.7 2.64.54 0 1.08-.18 1.5-.42v.18l.06.06h1.08l.06-.06V5.82l-.06-.06h-1.08l-.06.06v4.02c-.3.36-.9.6-1.5.6-1.02 0-1.5-.6-1.5-1.56V5.82l-.06-.06zm12.06 0h-1.86a2.507 2.507 0 0 0-.9-.18c-1.26 0-2.28.996-2.28 2.22 0 .624.24 1.14.684 1.56-.324.24-.504.6-.504.9 0 .42.24.66.48.84-.72.48-1.26 1.02-1.26 1.68 0 1.32 1.32 1.8 3 1.8s2.76-.792 2.76-1.86c0-2.28-3.84-1.86-3.84-2.64 0-.12.06-.18.12-.24.24.12.54.18.84.18 1.38 0 2.28-.96 2.28-2.22 0-.3-.072-.576-.18-.84h.66l.06-.06V5.82zm-2.76.9c.624 0 1.08.516 1.08 1.14 0 .624-.456 1.14-1.08 1.14-.624 0-1.08-.516-1.08-1.14 0-.624.456-1.14 1.08-1.14zm-.66 4.86c.6.18 2.28.42 2.28 1.2 0 .42-.48.78-1.5.78-1.2 0-1.74-.24-1.74-.72 0-.528.54-1.02.96-1.26zM92.1 3l-.06.06v8.28l.06.06h1.08l.06-.06V7.32c.3-.36.9-.6 1.5-.6 1.02 0 1.5.6 1.5 1.56v3.06l.06.06h1.08l.06-.06V8.22c0-1.62-.9-2.64-2.7-2.64-.54 0-1.08.18-1.5.42V3.06L93.18 3zm7.5 1.32l-.06.06v1.38h-.96l-.06.06V6.9l.06.06h.96v2.22c0 1.56.78 2.4 2.1 2.4.384 0 .996-.168 1.32-.36v-1.14l-.06-.06a2.14 2.14 0 0 1-1.26.42c-.48 0-.9-.36-.9-1.32V6.96h2.16l.06-.06V5.82l-.06-.06h-2.16V4.392l-.06-.072zm4.14 3.66l-.06.06v1.08l.06.06h3.72l.06-.06V8.04l-.06-.06zm5.04-.66l.06.06c.72-.48 1.26-.66 1.92-.66.66 0 1.08.36 1.08 1.02-1.62.12-3.36.54-3.36 2.22 0 1.14.96 1.62 1.98 1.62.372 0 .96-.12 1.38-.42v.18l.06.06h1.08l.06-.06V7.98c0-1.62-.9-2.4-2.22-2.4-.66 0-1.14.18-1.5.36zm3.06 2.76c-.42.24-.84.36-1.26.36-.54 0-.84-.18-.84-.6 0-.6.84-1.02 2.1-1.08zm2.34-4.32l-.06.048V6.9l.06.06h.9v4.38l.06.06h1.08l.06-.06V6.96h2.1l.06-.06V5.82l-.06-.06h-2.1v-.3c0-1.02.42-1.5 1.104-1.5.336 0 .636.06.996.36l.06-.06v-1.2c-.36-.18-.66-.24-1.056-.24-1.464 0-2.304 1.02-2.304 2.58v.36zM120 4.32l-.06.06v1.38h-.96l-.06.06V6.9l.06.06h.96v2.22c0 1.56.78 2.4 2.1 2.4.384 0 .996-.168 1.32-.36v-1.14l-.06-.06a2.14 2.14 0 0 1-1.26.42c-.48 0-.9-.36-.9-1.32V6.96h2.16l.06-.06V5.82l-.06-.06h-2.16V4.392l-.06-.072zm9.6 5.22l-.06-.06c-.6.6-1.44.96-2.22.96-1.02 0-1.74-.66-1.896-1.56h3.996l.12-.06c.06-.132.06-.24.06-.3 0-1.62-1.02-2.94-2.52-2.94-1.74 0-2.88 1.32-2.88 2.952 0 1.668 1.38 3.048 3.12 3.048.9 0 1.74-.42 2.28-.78zm-4.128-1.62c.168-.66.768-1.2 1.608-1.2.66 0 1.26.54 1.32 1.2zm5.628-2.16l-.06.06v5.52l.06.06h1.08l.06-.06V7.32c.3-.36.9-.6 1.5-.6.3 0 .72.06 1.08.36l.06-.06-.06-1.2c-.36-.18-.72-.24-1.08-.24-.54 0-1.08.18-1.5.42v-.18l-.06-.06zM143.34 3l-.06.06V6c-.36-.24-.9-.42-1.44-.42-1.68 0-3 1.32-3 3s1.32 3 3 3c.54 0 1.08-.18 1.44-.42v.18l.06.06h1.08l.06-.06V3.06l-.06-.06zm-.06 6.84c-.42.42-.9.6-1.44.6-1.02 0-1.74-.78-1.74-1.86s.72-1.86 1.74-1.86c.54 0 1.02.24 1.44.6zm8.16-.3l-.06-.06c-.6.6-1.44.96-2.22.96-1.02 0-1.74-.66-1.896-1.56h3.996l.12-.06c.06-.132.06-.24.06-.3 0-1.62-1.02-2.94-2.52-2.94-1.74 0-2.88 1.32-2.88 2.952 0 1.668 1.38 3.048 3.12 3.048.9 0 1.74-.42 2.28-.78zm-4.128-1.62c.168-.66.768-1.2 1.608-1.2.66 0 1.26.54 1.32 1.2zm9.168-.66v-1.2c-.48-.3-1.14-.48-1.86-.48-1.26 0-2.1.72-2.1 1.68 0 2.22 3.3 1.38 3.3 2.52 0 .42-.24.66-1.08.66-.66 0-1.44-.24-2.1-.66l-.06.06v1.2c.54.36 1.44.54 2.16.54 1.44 0 2.34-.78 2.34-1.8 0-2.34-3.3-1.5-3.3-2.52 0-.3.3-.54.84-.54.6 0 1.2.18 1.8.6zm2.4-2.94l-.06.06v1.38h-.96l-.06.06V6.9l.06.06h.96v2.22c0 1.56.78 2.4 2.1 2.4.384 0 .996-.168 1.32-.36v-1.14l-.06-.06a2.14 2.14 0 0 1-1.26.42c-.48 0-.9-.36-.9-1.32V6.96h2.16l.06-.06V5.82l-.06-.06h-2.16V4.392l-.06-.072zm4.62 1.44l-.06.06v5.52l.06.06h1.08l.06-.06V5.82l-.06-.06zm.48-2.1l-.72.72v.12l.72.72h.12l.72-.72v-.12l-.72-.72zm2.64 2.1l-.06.06v5.52l.06.06h1.08l.06-.06V7.32c.3-.36.9-.6 1.5-.6 1.02 0 1.5.6 1.5 1.56v3.06l.06.06h1.08l.06-.06V8.22c0-1.62-.9-2.64-2.7-2.64-.54 0-1.08.18-1.5.42v-.18l-.06-.06zm6.96 1.56l.06.06c.72-.48 1.26-.66 1.92-.66.66 0 1.08.36 1.08 1.02-1.62.12-3.36.54-3.36 2.22 0 1.14.96 1.62 1.98 1.62.372 0 .96-.12 1.38-.42v.18l.06.06h1.08l.06-.06V7.98c0-1.62-.9-2.4-2.22-2.4-.66 0-1.14.18-1.5.36zm3.06 2.76c-.42.24-.84.36-1.26.36-.54 0-.84-.18-.84-.6 0-.6.84-1.02 2.1-1.08zM180 4.32l-.06.06v1.38h-.96l-.06.06V6.9l.06.06h.96v2.22c0 1.56.78 2.4 2.1 2.4.384 0 .996-.168 1.32-.36v-1.14l-.06-.06a2.14 2.14 0 0 1-1.26.42c-.48 0-.9-.36-.9-1.32V6.96h2.16l.06-.06V5.82l-.06-.06h-2.16V4.392l-.06-.072zm4.62 1.44l-.06.06v5.52l.06.06h1.08l.06-.06V5.82l-.06-.06zm.48-2.1l-.72.72v.12l.72.72h.12l.72-.72v-.12l-.72-.72zm5.22 1.92c-1.68 0-3 1.32-3 3s1.32 3 3 3 3-1.32 3-3-1.32-3-3-3zm0 1.14c1.02 0 1.74.78 1.74 1.86s-.72 1.86-1.74 1.86-1.74-.78-1.74-1.86.72-1.86 1.74-1.86zm4.62-.96l-.06.06v5.52l.06.06h1.08l.06-.06V7.32c.3-.36.9-.6 1.5-.6 1.02 0 1.5.6 1.5 1.56v3.06l.06.06h1.08l.06-.06V8.22c0-1.62-.9-2.64-2.7-2.64-.54 0-1.08.18-1.5.42v-.18l-.06-.06zm10.74 1.5v-1.2c-.48-.3-1.14-.48-1.86-.48-1.26 0-2.1.72-2.1 1.68 0 2.22 3.3 1.38 3.3 2.52 0 .42-.24.66-1.08.66-.66 0-1.44-.24-2.1-.66l-.06.06v1.2c.54.36 1.44.54 2.16.54 1.44 0 2.34-.78 2.34-1.8 0-2.34-3.3-1.5-3.3-2.52 0-.3.3-.54.84-.54.6 0 1.2.18 1.8.6zm4.98.06l.06.06c.72-.48 1.26-.66 1.92-.66.66 0 1.08.36 1.08 1.02-1.62.12-3.36.54-3.36 2.22 0 1.14.96 1.62 1.98 1.62.372 0 .96-.12 1.38-.42v.18l.06.06h1.08l.06-.06V7.98c0-1.62-.9-2.4-2.22-2.4-.66 0-1.14.18-1.5.36zm3.06 2.76c-.42.24-.84.36-1.26.36-.54 0-.84-.18-.84-.6 0-.6.84-1.02 2.1-1.08zm3.36-5.76l-.06.06v1.38h-.96l-.06.06V6.9l.06.06h.96v2.22c0 1.56.78 2.4 2.1 2.4.384 0 .996-.168 1.32-.36v-1.14l-.06-.06a2.14 2.14 0 0 1-1.26.42c-.48 0-.9-.36-.9-1.32V6.96h2.16l.06-.06V5.82l-.06-.06h-2.16V4.392l-.06-.072zm8.04 0l-.06.06v1.38h-.96l-.06.06V6.9l.06.06h.96v2.22c0 1.56.78 2.4 2.1 2.4.384 0 .996-.168 1.32-.36v-1.14l-.06-.06a2.14 2.14 0 0 1-1.26.42c-.48 0-.9-.36-.9-1.32V6.96h2.16l.06-.06V5.82l-.06-.06h-2.16V4.392l-.06-.072zM229.74 3l-.06.06v8.28l.06.06h1.08l.06-.06V7.32c.3-.36.9-.6 1.5-.6 1.02 0 1.5.6 1.5 1.56v3.06l.06.06h1.08l.06-.06V8.22c0-1.62-.9-2.64-2.7-2.64-.54 0-1.08.18-1.5.42V3.06l-.06-.06zm12.18 6.54l-.06-.06c-.6.6-1.44.96-2.22.96-1.02 0-1.74-.66-1.896-1.56h3.996l.12-.06c.06-.132.06-.24.06-.3 0-1.62-1.02-2.94-2.52-2.94-1.74 0-2.88 1.32-2.88 2.952 0 1.668 1.38 3.048 3.12 3.048.9 0 1.74-.42 2.28-.78zm-4.128-1.62c.168-.66.768-1.2 1.608-1.2.66 0 1.26.54 1.32 1.2zm9.048-3.6l-.06.06v1.38h-.96l-.06.06V6.9l.06.06h.96v2.22c0 1.56.78 2.4 2.1 2.4.384 0 .996-.168 1.32-.36v-1.14l-.06-.06a2.14 2.14 0 0 1-1.26.42c-.48 0-.9-.36-.9-1.32V6.96h2.16l.06-.06V5.82l-.06-.06h-2.16V4.392l-.06-.072zm7.2 1.26c-1.68 0-3 1.32-3 3s1.32 3 3 3 3-1.32 3-3-1.32-3-3-3zm0 1.14c1.02 0 1.74.78 1.74 1.86s-.72 1.86-1.74 1.86-1.74-.78-1.74-1.86.72-1.86 1.74-1.86zm4.62-.96l-.06.06v8.28l.06.06h1.08l.06-.06v-2.94c.36.24.9.42 1.44.42 1.68 0 3-1.32 3-3s-1.32-3-3-3c-.54 0-1.08.18-1.44.42v-.18l-.06-.06zm1.14 1.56c.42-.36.9-.6 1.44-.6 1.02 0 1.74.78 1.74 1.86s-.72 1.86-1.74 1.86c-.54 0-1.02-.18-1.44-.6zm11.76-1.74c-1.68 0-3 1.32-3 3s1.32 3 3 3 3-1.32 3-3-1.32-3-3-3zm0 1.14c1.02 0 1.74.78 1.74 1.86s-.72 1.86-1.74 1.86-1.74-.78-1.74-1.86.72-1.86 1.74-1.86zm3.9-.96l-.06.048V6.9l.06.06h.9v4.38l.06.06h1.08l.06-.06V6.96h2.1l.06-.06V5.82l-.06-.06h-2.1v-.3c0-1.02.42-1.5 1.104-1.5.336 0 .636.06.996.36l.06-.06v-1.2c-.36-.18-.66-.24-1.056-.24-1.464 0-2.304 1.02-2.304 2.58v.36zm7.8 0l-.06.06 2.52 4.92-.72 1.5c-.3.6-.78.96-1.5.96l-.06.06v.936l.06.084c1.44 0 2.04-.66 2.52-1.5l3.54-6.96-.06-.06h-1.26l-.12.06-1.74 3.66-1.74-3.66-.12-.06zm10.02-.18c-1.68 0-3 1.32-3 3s1.32 3 3 3 3-1.32 3-3-1.32-3-3-3zm0 1.14c1.02 0 1.74.78 1.74 1.86s-.72 1.86-1.74 1.86-1.74-.78-1.74-1.86.72-1.86 1.74-1.86zm4.5-.96l-.06.06v3.12c0 1.62.9 2.64 2.7 2.64.54 0 1.08-.18 1.5-.42v.18l.06.06h1.08l.06-.06V5.82l-.06-.06h-1.08l-.06.06v4.02c-.3.36-.9.6-1.5.6-1.02 0-1.5-.6-1.5-1.56V5.82l-.06-.06zm7.32 0l-.06.06v5.52l.06.06h1.08l.06-.06V7.32c.3-.36.9-.6 1.5-.6.3 0 .72.06 1.08.36l.06-.06-.06-1.2c-.36-.18-.72-.24-1.08-.24-.54 0-1.08.18-1.5.42v-.18l-.06-.06zm8.46-1.44l-.06.06v1.38h-.96l-.06.06V6.9l.06.06h.96v2.22c0 1.56.78 2.4 2.1 2.4.384 0 .996-.168 1.32-.36v-1.14l-.06-.06a2.14 2.14 0 0 1-1.26.42c-.48 0-.9-.36-.9-1.32V6.96h2.16l.06-.06V5.82l-.06-.06h-2.16V4.392l-.06-.072zm4.62 1.44l-.06.06v5.52l.06.06h1.08l.06-.06V7.32c.3-.36.9-.6 1.5-.6.3 0 .72.06 1.08.36l.06-.06-.06-1.2c-.36-.18-.72-.24-1.08-.24-.54 0-1.08.18-1.5.42v-.18l-.06-.06zm4.8 1.56l.06.06c.72-.48 1.26-.66 1.92-.66.66 0 1.08.36 1.08 1.02-1.62.12-3.36.54-3.36 2.22 0 1.14.96 1.62 1.98 1.62.372 0 .96-.12 1.38-.42v.18l.06.06h1.08l.06-.06V7.98c0-1.62-.9-2.4-2.22-2.4-.66 0-1.14.18-1.5.36zm3.06 2.76c-.42.24-.84.36-1.26.36-.54 0-.84-.18-.84-.6 0-.6.84-1.02 2.1-1.08zm2.22-4.32l-.06.06 2.28 5.52.06.06h1.08l.06-.06 2.28-5.52-.06-.06h-1.2l-.06.06-1.56 3.96-1.56-3.96-.06-.06zm11.82 3.78l-.06-.06c-.6.6-1.44.96-2.22.96-1.02 0-1.74-.66-1.896-1.56h3.996l.12-.06c.06-.132.06-.24.06-.3 0-1.62-1.02-2.94-2.52-2.94-1.74 0-2.88 1.32-2.88 2.952 0 1.668 1.38 3.048 3.12 3.048.9 0 1.74-.42 2.28-.78zm-4.128-1.62c.168-.66.768-1.2 1.608-1.2.66 0 1.26.54 1.32 1.2zM341.46 3l-.06.06v6.36c0 1.38.72 2.16 1.98 2.16.42 0 .84-.18 1.14-.36v-1.2l-.06-.06c-.36.36-.72.48-1.08.48-.48 0-.78-.3-.78-1.08v-6.3l-.06-.06zm7.2 0l-.06.06v6.36c0 1.38.72 2.16 1.98 2.16.42 0 .84-.18 1.14-.36v-1.2l-.06-.06c-.36.36-.72.48-1.08.48-.48 0-.78-.3-.78-1.08v-6.3l-.06-.06zm4.2 2.76l-.06.06v5.52l.06.06h1.08l.06-.06V5.82l-.06-.06zm.48-2.1l-.72.72v.12l.72.72h.12l.72-.72v-.12l-.72-.72zm6.18 3.6v-1.2c-.48-.3-1.14-.48-1.86-.48-1.26 0-2.1.72-2.1 1.68 0 2.22 3.3 1.38 3.3 2.52 0 .42-.24.66-1.08.66-.66 0-1.44-.24-2.1-.66l-.06.06v1.2c.54.36 1.44.54 2.16.54 1.44 0 2.34-.78 2.34-1.8 0-2.34-3.3-1.5-3.3-2.52 0-.3.3-.54.84-.54.6 0 1.2.18 1.8.6zm2.4-2.94l-.06.06v1.38h-.96l-.06.06V6.9l.06.06h.96v2.22c0 1.56.78 2.4 2.1 2.4.384 0 .996-.168 1.32-.36v-1.14l-.06-.06a2.14 2.14 0 0 1-1.26.42c-.48 0-.9-.36-.9-1.32V6.96h2.16l.06-.06V5.82l-.06-.06h-2.16V4.392L363 4.32zm4.62 2.04l-.06.06V7.5l.06.06h1.08l.06-.06V6.42l-.06-.06zm0 3.84l-.06.06v1.08l.06.06h1.08l.06-.06v-1.08l-.06-.06z" fill="#fff"/></svg>